<svg xmlns="http://www.w3.org/2000/svg" viewBox="0 0 1000 292.07">
  <path d="M211.21,45a28.85,28.85,0,0,0-39.9-7.3,28.27,28.27,0,0,0-7.37,39.53C186.57,107.38,231.56,77.14,211.21,45Z"
        transform="translate(-1 -0.96)" style="fill:#fff"/>
  <path
    d="M84,128.75c-21.76-26-62.43-.94-48.25,30,9,19.28,37.36,21.74,49.53,4.07a27.9,27.9,0,0,0-.19-32.67C84.74,129.69,84.38,129.21,84,128.75Z"
    transform="translate(-1 -0.96)" style="fill:#fff"/>
  <path d="M203.9,210c-31.75-20.24-63.57,23.28-33,46.35A29.09,29.09,0,0,0,211,249.36,28,28,0,0,0,203.9,210Z"
        transform="translate(-1 -0.96)" style="fill:#fff"/>
  <path
    d="M65.7,87.08l.71.06,2,.18.94.11c.6.07,1.19.16,1.78.25l1,.16,1.71.32,1,.22c.58.12,1.16.26,1.73.41l1,.24c.74.19,1.47.41,2.21.64l1.22.39c.58.19,1.17.39,1.75.6l1.24.48c.44.17.89.34,1.33.53s.87.37,1.31.57l1.23.56,1.32.64,1.21.63c.42.23.85.45,1.27.69s.87.5,1.31.76l1.11.67c.8.49,1.59,1,2.37,1.54a59.73,59.73,0,0,1,19.18,21.63c6.25,11.51,11.45,20.31,16.72,27.17h0l.3.37c13.72-17.27,28-21.7,61.92-26.19a60.55,60.55,0,0,0,27.24-10.16c64.51-48.05-1.12-141.22-68.61-98.79A59.84,59.84,0,0,0,134,33.33c-22.34,40.72-31.5,47.59-76,53.74L59.54,87l.61,0C62,86.93,63.85,87,65.7,87.08ZM171.31,37.73a28.85,28.85,0,0,1,39.9,7.3c20.35,32.11-24.64,62.35-47.27,32.23A28.27,28.27,0,0,1,171.31,37.73Z"
    transform="translate(-1 -0.96)" style="fill:#fc6719"/>
  <path
    d="M222.21,184.26A61,61,0,0,0,195,173.93c-34.25-4.78-48.48-9.33-62.25-27l-.3-.37h0c-5.27-6.86-10.47-15.66-16.72-27.17A59.73,59.73,0,0,0,96.52,97.73c-.78-.54-1.57-1-2.37-1.54L93,95.52c-.44-.26-.87-.52-1.31-.76s-.85-.46-1.27-.69l-1.21-.63-1.32-.64-1.23-.56c-.44-.2-.87-.39-1.31-.57s-.89-.36-1.33-.53l-1.24-.48c-.58-.21-1.17-.41-1.75-.6l-1.22-.39c-.74-.23-1.47-.45-2.21-.64l-1-.24c-.57-.15-1.15-.29-1.73-.41l-1-.22-1.71-.32-1-.16c-.59-.09-1.18-.18-1.78-.25l-.94-.11-2-.18-.71-.06c-1.85-.12-3.7-.15-5.55-.1l-.61,0A60.84,60.84,0,0,0,12,112.39c-27,37.87-1.31,89.6,44.09,93.71h.13c45.79,6.54,54.89,13.17,77.19,54.29A59.7,59.7,0,0,0,152.59,282C219.58,324.72,286.67,232.9,222.21,184.26ZM85.28,162.84c-12.17,17.67-40.55,15.21-49.53-4.07-14.18-31,26.49-56,48.25-30,.38.46.74.94,1.09,1.42A27.9,27.9,0,0,1,85.28,162.84ZM211,249.36a29.09,29.09,0,0,1-40.07,6.95c-30.57-23.07,1.25-66.59,33-46.35A28,28,0,0,1,211,249.36Z"
    transform="translate(-1 -0.96)" style="fill:#01b2cc"/>
  <path
    d="M292.63,201.13a42.13,42.13,0,0,1-18-16.34q-6.36-10.6-6.36-24.61V132.61q0-14,6.36-24.61a42.19,42.19,0,0,1,18-16.34q11.67-5.73,27.16-5.73,23.11,0,36.91,11.67t14.64,31.82H339.52a16.16,16.16,0,0,0-5.83-11.67q-5.2-4.23-13.9-4.24-9.54,0-14.64,4.88t-5.09,14.22v27.57q0,9.34,5.09,14.22t14.64,4.88q8.7,0,13.9-4.14t5.83-11.77h31.82q-.84,20.16-14.64,31.82t-36.91,11.67Q304.29,206.86,292.63,201.13Z"
    transform="translate(-1 -0.96)" style="fill:#001c27"/>
  <path
    d="M417,242.92,432.87,199l-44.56-111h34.37L440.5,139a234.35,234.35,0,0,1,7.22,26.31q3.6-16.12,6.79-26.31l16.75-50.92h33.31L450.26,242.92Z"
    transform="translate(-1 -0.96)" style="fill:#001c27"/>
  <path
    d="M547.21,201.13a42.07,42.07,0,0,1-18-16.34q-6.36-10.6-6.36-24.61V132.61q0-14,6.36-24.61a42.13,42.13,0,0,1,18-16.34q11.67-5.73,27.16-5.73,23.11,0,36.91,11.67t14.64,31.82H594.1a16.17,16.17,0,0,0-5.84-11.67q-5.19-4.23-13.89-4.24-9.55,0-14.64,4.88t-5.09,14.22v27.57q0,9.34,5.09,14.22t14.64,4.88q8.7,0,13.89-4.14t5.84-11.77h31.82q-.85,20.16-14.64,31.82t-36.91,11.67Q558.88,206.86,547.21,201.13Z"
    transform="translate(-1 -0.96)" style="fill:#001c27"/>
  <path d="M715.87,204.74q-18.68,0-30-11.35t-11.35-30V78.51H638.44V49.87h67.89v113.5a12,12,0,0,0,12.72,12.73h34v28.64Z"
        transform="translate(-1 -0.96)" style="fill:#001c27"/>
  <path
    d="M875,153.82H803.49v6.36q0,22.29,21.21,22.28,7.42,0,12-2.54a12.47,12.47,0,0,0,6-7h31.18a41.34,41.34,0,0,1-17.29,24.61q-13.47,9.34-32.35,9.34-15.49,0-27-5.84a42.38,42.38,0,0,1-17.82-16.33q-6.27-10.5-6.26-24.51V132.61q0-14,6.26-24.51a42.44,42.44,0,0,1,17.82-16.33q11.57-5.83,27-5.84,15.27,0,26.73,5.84a42.56,42.56,0,0,1,17.71,16.33Q875,118.6,875,132.61Zm-71.49-18,41.15-.43v-3.18q0-22.28-20.36-22.27-10.39,0-15.59,5.83t-5.2,16.87Z"
    transform="translate(-1 -0.96)" style="fill:#001c27"/>
  <path
    d="M969.18,49.87H1001V204.74H970.24V182.46h-.64q-1.9,11.67-9.86,18t-20.48,6.37q-17.61,0-28.21-12.31t-10.61-33.3V131.54q0-20.77,10.61-33.2t28.21-12.41q12.53,0,20.48,6.37t9.86,18h.64l-1.06-28.64ZM964.3,174.29q4.88-5,4.88-14.11V132.61q0-9.12-4.88-14.11t-13.58-5q-8.91,0-13.68,5t-4.78,14.11v27.57q0,9.13,4.78,14.11t13.68,5Q959.42,179.28,964.3,174.29Z"
    transform="translate(-1 -0.96)" style="fill:#001c27"/>
</svg>
