<svg xmlns="http://www.w3.org/2000/svg" viewBox="0 0 263 263">
    <defs>
        <style>.cls-1 {
            fill: #fff;
        }

        .cls-2 {
            fill: #ea4535;
        }

        .cls-3 {
            fill: #f9bc15;
        }

        .cls-4 {
            fill: #557ebf;
        }

        .cls-5 {
            fill: #36a852;
        }</style>
    </defs>
    <g id="Layer_2" data-name="Layer 2">
        <g id="Layer_1-2" data-name="Layer 1">
            <path class="cls-1"
                  d="M131.5,0A131.5,131.5,0,1,0,263,131.5,131.49,131.49,0,0,0,131.5,0Zm88.43,164a83.41,83.41,0,0,1-62.61,59.37,101.12,101.12,0,0,1-48.35-.52A94.16,94.16,0,0,1,74.62,205.5a94.45,94.45,0,0,1-33.88-92.68A94.65,94.65,0,0,1,102.5,42.17a95.57,95.57,0,0,1,63.66.55,91.69,91.69,0,0,1,30.42,18.85c-3,3.2-6.14,6.18-9.19,9.3-5.8,5.78-11.58,11.59-17.39,17.37a51.17,51.17,0,0,0-20.38-12,55.53,55.53,0,0,0-56,14.55A58.69,58.69,0,0,0,79.93,113.1a57.28,57.28,0,0,0,0,36.81,58.72,58.72,0,0,0,21.66,29A55.7,55.7,0,0,0,122.62,188a61.71,61.71,0,0,0,22.55.07A54,54,0,0,0,166,179.87a44.43,44.43,0,0,0,18.93-29.2H133.4c0-12.29,0-24.59,0-36.88q44.48,0,89,0A111.12,111.12,0,0,1,219.93,164Z"/>
            <path class="cls-2"
                  d="M93.65,90.82a55.53,55.53,0,0,1,56-14.55,51.17,51.17,0,0,1,20.38,12c5.81-5.78,11.59-11.59,17.39-17.37,3.05-3.12,6.24-6.1,9.19-9.3a91.69,91.69,0,0,0-30.42-18.85A94.72,94.72,0,0,0,49,89.07l31,24A58.69,58.69,0,0,1,93.65,90.82Z"/>
            <path class="cls-3"
                  d="M79.93,113.1l-31-24a94.41,94.41,0,0,0,0,84.87q15.51-12,31-24A57.28,57.28,0,0,1,79.93,113.1Z"/>
            <path class="cls-4"
                  d="M133.39,113.79c0,12.29,0,24.59,0,36.88h51.51A44.43,44.43,0,0,1,166,179.87c10,7.79,20,15.54,30,23.34A85.83,85.83,0,0,0,219.93,164a111.12,111.12,0,0,0,2.41-50.18Q177.87,113.78,133.39,113.79Z"/>
            <path class="cls-5"
                  d="M145.17,188.09a61.71,61.71,0,0,1-22.55-.07,55.7,55.7,0,0,1-21.05-9.09,58.72,58.72,0,0,1-21.66-29q-15.48,12-31,24A95.42,95.42,0,0,0,74.62,205.5,94.16,94.16,0,0,0,109,222.82a101.12,101.12,0,0,0,48.35.52A85.39,85.39,0,0,0,196,203.21c-10-7.8-20-15.55-30-23.34A54,54,0,0,1,145.17,188.09Z"/>
        </g>
    </g>
</svg>
